<svg width="280" height="84" viewBox="0 0 280 84" fill="none" xmlns="http://www.w3.org/2000/svg">
  <defs>
    <linearGradient id="bg" x1="0" y1="0" x2="280" y2="84" gradientUnits="userSpaceOnUse">
      <stop stop-color="#0A66C2"/>
      <stop offset="1" stop-color="#004182"/>
    </linearGradient>
    <linearGradient id="edge" x1="10" y1="10" x2="270" y2="74" gradientUnits="userSpaceOnUse">
      <stop stop-color="#FFFFFF" stop-opacity="0.32"/>
      <stop offset="1" stop-color="#FFFFFF" stop-opacity="0.08"/>
    </linearGradient>
    <filter id="shadow" x="0" y="0" width="280" height="84" filterUnits="userSpaceOnUse" color-interpolation-filters="sRGB">
      <feDropShadow dx="0" dy="8" stdDeviation="8" flood-color="#000000" flood-opacity="0.4"/>
    </filter>
  </defs>
  <g filter="url(#shadow)">
    <rect x="10" y="10" width="260" height="64" rx="18" fill="url(#bg)"/>
    <rect x="10" y="10" width="260" height="64" rx="18" fill="url(#edge)"/>
    <rect x="42" y="29" width="10" height="27" rx="2" fill="white"/>
    <rect x="42" y="23" width="10" height="4" rx="2" fill="white"/>
    <path d="M58 56V35H68V38.5C69.8 35.8 73.1 34 77 34C84.8 34 90 39.2 90 48V56H80V49.4C80 45.2 77.8 43 74.3 43C70.8 43 68 45.3 68 49.3V56H58Z" fill="white"/>
    <text x="104" y="48" font-family="Arial, Helvetica, sans-serif" font-size="24" font-weight="700" fill="white">LinkedIn</text>
  </g>
</svg>
